<svg xmlns="http://www.w3.org/2000/svg" width="1122" height="1402" viewBox="0 0 1122 1402"><rect width="100%" height="100%" fill="#fff"/><style>
       .t{font-family:'Noto Sans CJK TC','PingFang TC','Microsoft JhengHei',sans-serif;fill:#121212;font-weight:400}
       .r{fill:#e71c1c;font-family:'Noto Sans CJK TC','PingFang TC','Microsoft JhengHei',sans-serif;font-weight:400}
       .l{stroke:#121212;stroke-width:3;fill:none;stroke-linecap:square;stroke-linejoin:miter}
       .rl{stroke:#e71c1c;stroke-width:2;fill:none}
       </style><text x="561.0" y="28" font-size="40" class="t" text-anchor="middle" dominant-baseline="hanging">行政法 NO1</text><text x="855" y="28" font-size="18" class="t" text-anchor="start" dominant-baseline="hanging">No.</text><line x1="900" y1="42" x2="1055" y2="42" class="l" stroke-width="1"/><text x="855" y="61" font-size="18" class="t" text-anchor="start" dominant-baseline="hanging">Date</text><line x1="910" y1="76" x2="1055" y2="76" class="l" stroke-width="1"/><text x="74" y="103" font-size="34" class="t" text-anchor="start" dominant-baseline="hanging">＊行程法</text><text x="80" y="163" font-size="34" class="t" text-anchor="start" dominant-baseline="hanging">一、法例</text><text x="120" y="220" font-size="30" class="t" text-anchor="start" dominant-baseline="hanging">（一）本法功能：</text><text x="335" y="220" font-size="30" class="r" text-anchor="start" dominant-baseline="hanging">公公民法人效信</text><text x="120" y="285" font-size="30" class="t" text-anchor="start" dominant-baseline="hanging">（二）</text><path d="M188 302 V377 H208" class="l" stroke-width="3"/><line x1="188" y1="302" x2="208" y2="302" class="l" stroke-width="3"/><text x="220" y="291" font-size="30" class="t" text-anchor="start" dominant-baseline="hanging">行政程序：</text><text x="378" y="291" font-size="26" class="r" text-anchor="start" dominant-baseline="hanging">VA、V.V、法規命令、行政規則、行政計畫、行政指導、陳情</text><text x="400" y="327" font-size="22" class="t" text-anchor="start" dominant-baseline="hanging">①</text><text x="468" y="327" font-size="22" class="t" text-anchor="start" dominant-baseline="hanging">②</text><text x="646" y="327" font-size="22" class="t" text-anchor="start" dominant-baseline="hanging">③</text><text x="786" y="327" font-size="22" class="t" text-anchor="start" dominant-baseline="hanging">④</text><text x="907" y="327" font-size="22" class="t" text-anchor="start" dominant-baseline="hanging">⑤</text><text x="1010" y="327" font-size="22" class="t" text-anchor="start" dominant-baseline="hanging">⑥</text><text x="220" y="374" font-size="30" class="t" text-anchor="start" dominant-baseline="hanging">行政H</text><path d="M340 378 V577" class="l" stroke-width="3"/><line x1="340" y1="379" x2="362" y2="379" class="l" stroke-width="3"/><line x1="340" y1="443" x2="362" y2="443" class="l" stroke-width="3"/><line x1="340" y1="506" x2="362" y2="506" class="l" stroke-width="3"/><line x1="340" y1="577" x2="362" y2="577" class="l" stroke-width="3"/><text x="379" y="368" font-size="30" class="r" text-anchor="start" dominant-baseline="hanging">國家</text><text x="379" y="430" font-size="30" class="r" text-anchor="start" dominant-baseline="hanging">地治團體</text><text x="379" y="494" font-size="30" class="r" text-anchor="start" dominant-baseline="hanging">其他行政主體</text><text x="574" y="494" font-size="28" class="t" text-anchor="start" dominant-baseline="hanging">（公法人、行政法人）</text><text x="309" y="557" font-size="38" class="r" text-anchor="start" dominant-baseline="hanging">☆</text><text x="371" y="557" font-size="28" class="r" text-anchor="start" dominant-baseline="hanging">準行政H：受託行使公權力之個人 or 團體</text><text x="119" y="646" font-size="30" class="t" text-anchor="start" dominant-baseline="hanging">（三）H 排除</text><path d="M325 640 V718" class="l" stroke-width="3"/><line x1="325" y1="640" x2="347" y2="640" class="l" stroke-width="3"/><line x1="325" y1="718" x2="347" y2="718" class="l" stroke-width="3"/><text x="360" y="628" font-size="29" class="t" text-anchor="start" dominant-baseline="hanging">民意</text><text x="360" y="665" font-size="29" class="t" text-anchor="start" dominant-baseline="hanging">司</text><text x="360" y="702" font-size="29" class="t" text-anchor="start" dominant-baseline="hanging">監</text><path d="M158 688 V785 H179" class="l" stroke-width="3"/><text x="186" y="770" font-size="30" class="t" text-anchor="start" dominant-baseline="hanging">事項排除：</text><text x="345" y="770" font-size="29" class="r" text-anchor="start" dominant-baseline="hanging">外</text><text x="375" y="770" font-size="29" class="r" text-anchor="start" dominant-baseline="hanging">外</text><text x="405" y="770" font-size="29" class="r" text-anchor="start" dominant-baseline="hanging">刑</text><text x="435" y="770" font-size="29" class="r" text-anchor="start" dominant-baseline="hanging">矯</text><text x="465" y="770" font-size="29" class="r" text-anchor="start" dominant-baseline="hanging">私</text><circle cx="509" cy="787" r="20" fill="none" stroke="#e71c1c" stroke-width="2"/><text x="495" y="770" font-size="29" class="r" text-anchor="start" dominant-baseline="hanging">學</text><circle cx="552" cy="787" r="20" fill="none" stroke="#e71c1c" stroke-width="2"/><text x="538" y="770" font-size="29" class="r" text-anchor="start" dominant-baseline="hanging">公</text><text x="581" y="770" font-size="29" class="r" text-anchor="start" dominant-baseline="hanging">考</text><path d="M580 810 V881" class="l" stroke-width="3"/><line x1="580" y1="810" x2="603" y2="810" class="l" stroke-width="3"/><line x1="580" y1="881" x2="603" y2="881" class="l" stroke-width="3"/><text x="624" y="798" font-size="29" class="t" text-anchor="start" dominant-baseline="hanging">改變其身分 or 處分</text><text x="624" y="860" font-size="29" class="t" text-anchor="start" dominant-baseline="hanging">人事改變身分 or 重大利益</text><path d="M905 790 C940 795 940 885 905 900" class="rl" stroke-width="2"/><text x="958" y="790" font-size="30" class="r" text-anchor="start" dominant-baseline="hanging">例外要</text><text x="958" y="834" font-size="30" class="r" text-anchor="start" dominant-baseline="hanging">適用本法</text><text x="120" y="947" font-size="31" class="t" text-anchor="start" dominant-baseline="hanging">（四）原則：</text><text x="137" y="1016" font-size="36" class="r" text-anchor="start" dominant-baseline="hanging">☆</text><text x="174" y="1012" font-size="31" class="t" text-anchor="start" dominant-baseline="hanging">裁量目的性原則</text><text x="188" y="1125" font-size="30" class="t" text-anchor="start" dominant-baseline="hanging">瑕疵</text><line x1="282" y1="1145" x2="329" y2="1145" class="l" stroke-width="3"/><line x1="329" y1="1093" x2="329" y2="1193" class="l" stroke-width="3"/><line x1="329" y1="1093" x2="351" y2="1093" class="l" stroke-width="3"/><line x1="329" y1="1193" x2="351" y2="1193" class="l" stroke-width="3"/><circle cx="382" cy="1093" r="28" fill="none" stroke="#121212" stroke-width="2"/><text x="382" y="1075" font-size="29" class="t" text-anchor="middle" dominant-baseline="hanging">外</text><circle cx="382" cy="1193" r="28" fill="none" stroke="#121212" stroke-width="2"/><text x="382" y="1175" font-size="29" class="t" text-anchor="middle" dominant-baseline="hanging">內</text><text x="430" y="1077" font-size="30" class="r" text-anchor="start" dominant-baseline="hanging">→ 裁量逾越</text><line x1="410" y1="1193" x2="443" y2="1193" class="l" stroke-width="3"/><line x1="443" y1="1160" x2="443" y2="1250" class="l" stroke-width="3"/><line x1="443" y1="1160" x2="472" y2="1160" class="l" stroke-width="3"/><line x1="443" y1="1247" x2="472" y2="1247" class="l" stroke-width="3"/><text x="490" y="1145" font-size="29" class="t" text-anchor="start" dominant-baseline="hanging">考量不必要因素：</text><text x="744" y="1145" font-size="29" class="r" text-anchor="start" dominant-baseline="hanging">裁量濫用</text><text x="875" y="1145" font-size="27" class="t" text-anchor="start" dominant-baseline="hanging">（事實錯誤）</text><text x="490" y="1226" font-size="29" class="t" text-anchor="start" dominant-baseline="hanging">怠惰</text><text x="724" y="1226" font-size="29" class="t" text-anchor="start" dominant-baseline="hanging">：</text><text x="744" y="1226" font-size="29" class="r" text-anchor="start" dominant-baseline="hanging">裁量怠惰</text><!-- render retry 2 --></svg>